<svg xmlns="http://www.w3.org/2000/svg" viewBox="0 0 720 380" font-family="system-ui, -apple-system, sans-serif" font-size="13">
  <defs>
    <linearGradient id="appGrad" x1="0" y1="0" x2="0" y2="1">
      <stop offset="0%" stop-color="#3b82f6"/>
      <stop offset="100%" stop-color="#2563eb"/>
    </linearGradient>
    <linearGradient id="workerGrad" x1="0" y1="0" x2="0" y2="1">
      <stop offset="0%" stop-color="#10b981"/>
      <stop offset="100%" stop-color="#059669"/>
    </linearGradient>
    <linearGradient id="lbGrad" x1="0" y1="0" x2="0" y2="1">
      <stop offset="0%" stop-color="#8b5cf6"/>
      <stop offset="100%" stop-color="#7c3aed"/>
    </linearGradient>
  </defs>

  <!-- Background -->
  <rect width="720" height="380" rx="12" fill="#0f172a"/>

  <!-- Title -->
  <text x="360" y="30" text-anchor="middle" fill="#94a3b8" font-size="11" font-weight="500" letter-spacing="2">JUDGEKIT ARCHITECTURE</text>

  <!-- Internet / LAN label -->
  <text x="360" y="58" text-anchor="middle" fill="#64748b" font-size="11">INTERNET / LAN</text>
  <line x1="260" y1="62" x2="460" y2="62" stroke="#334155" stroke-width="1"/>

  <!-- Load Balancer -->
  <rect x="290" y="72" width="140" height="36" rx="6" fill="url(#lbGrad)" opacity="0.9"/>
  <text x="360" y="94" text-anchor="middle" fill="white" font-weight="600" font-size="12">NGINX / LB</text>

  <!-- Connection LB to App -->
  <line x1="360" y1="108" x2="360" y2="132" stroke="#475569" stroke-width="2" stroke-dasharray="4,3"/>

  <!-- App Server -->
  <rect x="250" y="132" width="220" height="72" rx="8" fill="url(#appGrad)" opacity="0.95"/>
  <text x="360" y="156" text-anchor="middle" fill="white" font-weight="700" font-size="14">App Server</text>
  <text x="360" y="174" text-anchor="middle" fill="#bfdbfe" font-size="11">Next.js + SQLite</text>
  <text x="360" y="192" text-anchor="middle" fill="#93c5fd" font-size="10">Port 3000</text>

  <!-- Connections App to Workers -->
  <line x1="290" y1="204" x2="100" y2="260" stroke="#334155" stroke-width="1.5"/>
  <line x1="340" y1="204" x2="260" y2="260" stroke="#334155" stroke-width="1.5"/>
  <line x1="380" y1="204" x2="420" y2="260" stroke="#334155" stroke-width="1.5"/>
  <line x1="430" y1="204" x2="580" y2="260" stroke="#334155" stroke-width="1.5"/>

  <!-- HTTPS labels on connections -->
  <text x="185" y="238" text-anchor="middle" fill="#475569" font-size="9" transform="rotate(-20, 185, 238)">HTTPS</text>
  <text x="295" y="238" text-anchor="middle" fill="#475569" font-size="9" transform="rotate(-8, 295, 238)">HTTPS</text>
  <text x="405" y="238" text-anchor="middle" fill="#475569" font-size="9" transform="rotate(8, 405, 238)">HTTPS</text>
  <text x="515" y="238" text-anchor="middle" fill="#475569" font-size="9" transform="rotate(20, 515, 238)">HTTPS</text>

  <!-- Worker 1 -->
  <rect x="30" y="260" width="140" height="80" rx="6" fill="url(#workerGrad)" opacity="0.9"/>
  <text x="100" y="282" text-anchor="middle" fill="white" font-weight="600" font-size="12">Worker 1</text>
  <text x="100" y="298" text-anchor="middle" fill="#a7f3d0" font-size="10">Rust binary</text>
  <text x="100" y="314" text-anchor="middle" fill="#6ee7b7" font-size="10">Docker sandbox</text>
  <text x="100" y="330" text-anchor="middle" fill="#6ee7b7" font-size="9">concurrency: 4</text>

  <!-- Worker 2 -->
  <rect x="190" y="260" width="140" height="80" rx="6" fill="url(#workerGrad)" opacity="0.9"/>
  <text x="260" y="282" text-anchor="middle" fill="white" font-weight="600" font-size="12">Worker 2</text>
  <text x="260" y="298" text-anchor="middle" fill="#a7f3d0" font-size="10">Rust binary</text>
  <text x="260" y="314" text-anchor="middle" fill="#6ee7b7" font-size="10">Docker sandbox</text>
  <text x="260" y="330" text-anchor="middle" fill="#6ee7b7" font-size="9">concurrency: 4</text>

  <!-- Worker 3 -->
  <rect x="350" y="260" width="140" height="80" rx="6" fill="url(#workerGrad)" opacity="0.9"/>
  <text x="420" y="282" text-anchor="middle" fill="white" font-weight="600" font-size="12">Worker 3</text>
  <text x="420" y="298" text-anchor="middle" fill="#a7f3d0" font-size="10">Rust binary</text>
  <text x="420" y="314" text-anchor="middle" fill="#6ee7b7" font-size="10">Docker sandbox</text>
  <text x="420" y="330" text-anchor="middle" fill="#6ee7b7" font-size="9">concurrency: 4</text>

  <!-- Worker N -->
  <rect x="510" y="260" width="140" height="80" rx="6" fill="url(#workerGrad)" opacity="0.85"/>
  <text x="580" y="282" text-anchor="middle" fill="white" font-weight="600" font-size="12">Worker N</text>
  <text x="580" y="298" text-anchor="middle" fill="#a7f3d0" font-size="10">Rust binary</text>
  <text x="580" y="314" text-anchor="middle" fill="#6ee7b7" font-size="10">Docker sandbox</text>
  <text x="580" y="330" text-anchor="middle" fill="#6ee7b7" font-size="9">concurrency: 4</text>

  <!-- Legend -->
  <text x="360" y="368" text-anchor="middle" fill="#475569" font-size="10">Workers connect via HTTP(S) only. Atomic UPDATE...RETURNING prevents double-claiming.</text>
</svg>
